<mxfile host="app.diagrams.net" modified="2021-04-03T18:00:06.324Z" agent="5.0 (Windows NT 10.0; Win64; x64) AppleWebKit/537.36 (KHTML, like Gecko) Chrome/89.0.4389.114 Safari/537.36" etag="12zd6LTdgYrnSU5rMP3w" version="14.5.6" type="github">
  <diagram id="2pYx5tzj1kb6CLj0sQjC" name="Page-1">
    <mxGraphModel dx="1332" dy="802" grid="0" gridSize="10" guides="1" tooltips="1" connect="1" arrows="1" fold="1" page="1" pageScale="1" pageWidth="850" pageHeight="1100" math="0" shadow="0">
      <root>
        <mxCell id="0" />
        <mxCell id="1" parent="0" />
        <mxCell id="jN4aPA-1XL_Rka4T4j6H-1" value="intents" style="ellipse;whiteSpace=wrap;html=1;" vertex="1" parent="1">
          <mxGeometry x="470" y="100" width="120" height="80" as="geometry" />
        </mxCell>
        <mxCell id="jN4aPA-1XL_Rka4T4j6H-23" style="rounded=0;orthogonalLoop=1;jettySize=auto;html=1;" edge="1" parent="1" source="jN4aPA-1XL_Rka4T4j6H-2" target="jN4aPA-1XL_Rka4T4j6H-1">
          <mxGeometry relative="1" as="geometry" />
        </mxCell>
        <mxCell id="jN4aPA-1XL_Rka4T4j6H-2" value="tag" style="ellipse;whiteSpace=wrap;html=1;" vertex="1" parent="1">
          <mxGeometry x="280" y="150" width="120" height="80" as="geometry" />
        </mxCell>
        <mxCell id="jN4aPA-1XL_Rka4T4j6H-24" style="rounded=0;orthogonalLoop=1;jettySize=auto;html=1;" edge="1" parent="1" source="jN4aPA-1XL_Rka4T4j6H-9" target="jN4aPA-1XL_Rka4T4j6H-1">
          <mxGeometry relative="1" as="geometry" />
        </mxCell>
        <mxCell id="jN4aPA-1XL_Rka4T4j6H-9" value="pattern" style="ellipse;whiteSpace=wrap;html=1;" vertex="1" parent="1">
          <mxGeometry x="490" y="230" width="100" height="120" as="geometry" />
        </mxCell>
        <mxCell id="jN4aPA-1XL_Rka4T4j6H-25" style="rounded=0;orthogonalLoop=1;jettySize=auto;html=1;entryX=1;entryY=0.5;entryDx=0;entryDy=0;" edge="1" parent="1" source="jN4aPA-1XL_Rka4T4j6H-10" target="jN4aPA-1XL_Rka4T4j6H-1">
          <mxGeometry relative="1" as="geometry" />
        </mxCell>
        <mxCell id="jN4aPA-1XL_Rka4T4j6H-10" value="responses" style="ellipse;whiteSpace=wrap;html=1;" vertex="1" parent="1">
          <mxGeometry x="660" y="150" width="110" height="130" as="geometry" />
        </mxCell>
      </root>
    </mxGraphModel>
  </diagram>
</mxfile>
